<svg width="200" height="200" viewBox="0 0 200 200" fill="none" xmlns="http://www.w3.org/2000/svg">
<circle cx="100" cy="100" r="100" fill="url(#paint0_radial_14_1251)" fill-opacity="0.1"/>
<path d="M86.7244 169.388C86.3896 171.114 87.5173 172.792 89.2564 173.053C106.49 175.632 124.122 172.053 139.021 162.885C154.825 153.159 166.402 137.854 171.458 119.998C176.514 102.143 174.681 83.0405 166.321 66.4726C157.962 49.9047 143.687 37.0796 126.321 30.5369C108.955 23.9943 89.7661 24.211 72.5527 31.1441C55.3393 38.0773 41.3568 51.2214 33.374 67.9739C25.3911 84.7263 23.9899 103.866 29.4478 121.602C34.5928 138.322 45.4797 152.646 60.1312 162.079C61.6097 163.031 63.5643 162.515 64.4519 160.996C65.3394 159.478 64.8236 157.535 63.3489 156.577C50.0735 147.953 40.2098 134.924 35.5342 119.729C30.5457 103.518 31.8265 86.0249 39.1227 70.7133C46.419 55.4016 59.1989 43.388 74.9319 37.0511C90.6649 30.7142 108.204 30.5162 124.076 36.4961C139.948 42.4761 152.996 54.1981 160.636 69.3411C168.276 84.4841 169.952 101.944 165.331 118.263C160.709 134.583 150.129 148.572 135.683 157.462C122.144 165.793 106.135 169.075 90.4697 166.795C88.7295 166.541 87.0593 167.662 86.7244 169.388Z" fill="url(#paint1_angular_14_1251)"/>
<path d="M139.157 77.7184C140.953 76.6814 141.58 74.375 140.409 72.6633C134.201 63.5894 125.103 56.8264 114.543 53.5182C102.784 49.8345 90.0697 50.7032 78.9211 55.9523C67.7724 61.2013 59.0028 70.4474 54.3504 81.8579C49.698 93.2684 49.5025 106.01 53.8026 117.558C58.1028 129.106 66.5846 138.617 77.567 144.206C88.5494 149.794 101.231 151.053 113.097 147.731C124.964 144.41 135.149 136.752 141.635 126.274C147.46 116.865 149.918 105.798 148.679 94.8741C148.446 92.8134 146.463 91.4788 144.426 91.8691C142.389 92.2594 141.072 94.2272 141.278 96.2909C142.18 105.359 140.082 114.514 135.249 122.321C129.755 131.197 121.126 137.685 111.073 140.499C101.02 143.313 90.277 142.246 80.9731 137.512C71.6693 132.778 64.4838 124.72 60.8409 114.938C57.198 105.155 57.3636 94.36 61.3049 84.6935C65.2462 75.0269 72.6755 67.1939 82.1203 62.7472C91.565 58.3004 102.336 57.5644 112.297 60.6851C121.06 63.4301 128.634 68.9828 133.883 76.4327C135.077 78.1281 137.361 78.7554 139.157 77.7184Z" fill="url(#paint2_angular_14_1251)"/>
<path fill-rule="evenodd" clip-rule="evenodd" d="M118.205 88.347C118.454 88.5958 118.869 88.5958 119.201 88.347L121.025 86.4394C121.145 86.3177 121.212 86.1539 121.212 85.9832C121.212 85.8125 121.145 85.6487 121.025 85.527L114.473 78.9747C114.351 78.855 114.187 78.7879 114.017 78.7879C113.846 78.7879 113.682 78.855 113.561 78.9747L111.653 80.7994C111.404 81.1312 111.404 81.5459 111.653 81.7947L113.561 83.6194L110.741 86.4394L105.101 80.7994C104.979 80.6797 104.815 80.6126 104.645 80.6126C104.474 80.6126 104.31 80.6797 104.188 80.7994L102.281 82.707C102.161 82.8287 102.094 82.9925 102.094 83.1632C102.094 83.3339 102.161 83.4978 102.281 83.6194L103.193 84.6147L85.2779 102.53C84.5024 103.303 83.9127 104.242 83.5535 105.277C83.1943 106.311 83.0749 107.414 83.2044 108.502L83.8679 114.224L78.9745 119.118C78.7256 119.45 78.7256 119.864 78.9745 120.113L79.8868 121.026C80.1356 121.274 80.5503 121.274 80.7991 121.026L85.7756 116.132C91.9132 116.796 91.8302 116.796 92.3279 116.796C94.3184 116.796 96.1431 116.049 97.4702 114.722L115.385 96.8069L116.381 97.7193C116.629 97.9681 117.044 97.9681 117.293 97.7193L119.201 95.8116C119.32 95.69 119.387 95.5261 119.387 95.3555C119.387 95.1848 119.32 95.0209 119.201 94.8993L113.561 89.2593L116.381 86.4394L118.205 88.347ZM94.7331 111.902C93.9867 112.566 92.9914 112.98 91.9961 112.814L87.6832 112.317L87.1856 108.004C87.1026 107.009 87.4344 106.013 88.0979 105.35L89.1761 104.272L91.4985 106.677C91.9961 107.174 92.8255 107.174 93.3231 106.677L94.3184 105.682C94.8161 105.184 94.8161 104.354 94.3184 103.857L91.9132 101.452L94.7331 98.7145L97.1384 101.037C97.636 101.535 98.4654 101.535 98.9631 101.037L99.9584 100.125C100.456 99.5439 100.456 98.7145 99.9584 98.2169L97.5531 95.8116L100.373 93.0746L102.778 95.3969C103.276 95.8946 104.105 95.8946 104.603 95.3969L105.598 94.4016C106.096 93.904 106.096 93.0746 105.598 92.577L103.193 90.2546L106.013 87.4346L112.565 93.9869L94.7331 111.902Z" fill="#F0B8A0"/>
<defs>
<radialGradient id="paint0_radial_14_1251" cx="0" cy="0" r="1" gradientUnits="userSpaceOnUse" gradientTransform="translate(100 100) rotate(90) scale(100)">
<stop offset="0.369792" stop-color="#FBDFCD"/>
<stop offset="1" stop-color="#FBDFCD" stop-opacity="0.08"/>
</radialGradient>
<radialGradient id="paint1_angular_14_1251" cx="0" cy="0" r="1" gradientUnits="userSpaceOnUse" gradientTransform="translate(100.216 99.8253) rotate(110.561) scale(95.6627)">
<stop stop-color="#383D76"/>
<stop offset="1" stop-color="#EFEFF4" stop-opacity="0"/>
</radialGradient>
<radialGradient id="paint2_angular_14_1251" cx="0" cy="0" r="1" gradientUnits="userSpaceOnUse" gradientTransform="translate(99.8529 100.41) rotate(-28.2643) scale(49.1619)">
<stop stop-color="#383D76"/>
<stop offset="1" stop-color="#EFEFF4" stop-opacity="0"/>
</radialGradient>
</defs>
</svg>
